<svg width="119" height="31" viewBox="0 0 119 31" fill="none" xmlns="http://www.w3.org/2000/svg">
<path d="M59.5 0.5C59.7761 0.5 60 0.276142 60 0C60 -0.276142 59.7761 -0.5 59.5 -0.5V0.5ZM74.4228 0.49153L79.1818 3.76044L79.6333 -1.99538L74.4228 0.49153ZM118.5 15.5C118.5 17.3643 117.041 19.273 114.062 21.1076C111.111 22.9249 106.808 24.5796 101.447 25.9763C90.7313 28.7677 75.9006 30.5 59.5 30.5V31.5C75.9603 31.5 90.8797 29.7625 101.699 26.944C107.105 25.5358 111.515 23.8505 114.586 21.959C117.63 20.0848 119.5 17.916 119.5 15.5H118.5ZM59.5 30.5C43.0994 30.5 28.2687 28.7677 17.5532 25.9763C12.1917 24.5796 7.88871 22.9249 4.93801 21.1076C1.9594 19.273 0.5 17.3643 0.5 15.5H-0.5C-0.5 17.916 1.37048 20.0848 4.4136 21.959C7.48463 23.8505 11.8952 25.5358 17.3011 26.944C28.1203 29.7625 43.0397 31.5 59.5 31.5V30.5ZM0.5 15.5C0.5 13.6357 1.9594 11.727 4.93801 9.89243C7.88871 8.07509 12.1917 6.42039 17.5532 5.0237C28.2687 2.23226 43.0994 0.5 59.5 0.5V-0.5C43.0397 -0.5 28.1203 1.23753 17.3011 4.05599C11.8952 5.46425 7.48463 7.14952 4.4136 9.04097C1.37048 10.9152 -0.5 13.084 -0.5 15.5H0.5ZM78.8679 1.3417C90.5088 2.38786 100.485 4.34883 107.536 6.88248C111.064 8.15028 113.831 9.55152 115.707 11.0328C117.59 12.5194 118.5 14.0244 118.5 15.5H119.5C119.5 13.5808 118.316 11.8184 116.327 10.248C114.331 8.67226 111.451 7.22689 107.874 5.94139C100.713 3.36846 90.6456 1.39612 78.9574 0.345715L78.8679 1.3417Z" fill="white"/>
</svg>
